<svg xmlns="http://www.w3.org/2000/svg" width="48" height="48" viewBox="0 0 48 48">
  <defs>
    <style>
      .cls-1 {
        fill: #28b2cd;
        fill-rule: evenodd;
      }
    </style>
  </defs>
  <path id="X" class="cls-1" d="M510.59,393.362a5.553,5.553,0,0,0,7.862,0l14.536-14.529,14.536,14.529a5.551,5.551,0,0,0,7.861,0,5.59,5.59,0,0,0,0-7.857l-14.536-14.529,14.536-14.53a5.557,5.557,0,1,0-7.861-7.857l-14.536,14.529-14.536-14.529a5.558,5.558,0,0,0-7.862,7.857l14.536,14.53L510.59,385.505A5.59,5.59,0,0,0,510.59,393.362Z" transform="translate(-509 -347)"/>
</svg>
